/* XPM */
static char * fzpong_xpm[] = {
"64 64 649 2",
"  	c None",
". 	c #1E7905",
"+ 	c #FD57B3",
"@ 	c #F9EA07",
"# 	c #DAD203",
"$ 	c #CACA00",
"% 	c #CCCA00",
"& 	c #D0CA00",
"* 	c #CECA00",
"= 	c #F8E959",
"- 	c #F9A724",
"; 	c #582C10",
"> 	c #443D05",
", 	c #4F4706",
"' 	c #3B2E04",
") 	c #432903",
"! 	c #240F01",
"~ 	c #B2A00E",
"{ 	c #D0AF10",
"] 	c #86700A",
"^ 	c #776409",
"/ 	c #3B2503",
"( 	c #D09610",
"_ 	c #D07110",
": 	c #86490A",
"< 	c #774109",
"[ 	c #3A1803",
"} 	c #D09210",
"| 	c #D05810",
"1 	c #D04B10",
"2 	c #C9450E",
"3 	c #7D2C09",
"4 	c #6B2708",
"5 	c #340F03",
"6 	c #1D7705",
"7 	c #1A6A05",
"8 	c #196305",
"9 	c #1C7005",
"0 	c #1B6C05",
"a 	c #1A6905",
"b 	c #1C7105",
"c 	c #1D7605",
"d 	c #1B6F05",
"e 	c #196405",
"f 	c #1A6805",
"g 	c #1C7205",
"h 	c #CF340F",
"i 	c #9F0301",
"j 	c #450000",
"k 	c #240000",
"l 	c #0F0000",
"m 	c #1A6B05",
"n 	c #124505",
"o 	c #0E3305",
"p 	c #1D7805",
"q 	c #186105",
"r 	c #175B05",
"s 	c #155005",
"t 	c #124605",
"u 	c #113F05",
"v 	c #103A05",
"w 	c #103B05",
"x 	c #144F05",
"y 	c #175905",
"z 	c #186005",
"A 	c #1A6705",
"B 	c #1D7405",
"C 	c #196205",
"D 	c #175A05",
"E 	c #144E05",
"F 	c #124305",
"G 	c #0E3105",
"H 	c #0E3205",
"I 	c #103905",
"J 	c #114005",
"K 	c #134905",
"L 	c #165405",
"M 	c #185E05",
"N 	c #155205",
"O 	c #091B05",
"P 	c #060F05",
"Q 	c #134705",
"R 	c #1C7405",
"S 	c #196605",
"T 	c #144B05",
"U 	c #0D2D05",
"V 	c #081605",
"W 	c #060B05",
"X 	c #071105",
"Y 	c #0D2C05",
"Z 	c #091905",
"` 	c #060D05",
" .	c #0A1E05",
"..	c #CF330F",
"+.	c #9E0301",
"@.	c #081705",
"#.	c #185F05",
"$.	c #1D7505",
"%.	c #103C05",
"&.	c #071305",
"*.	c #060C05",
"=.	c #103D05",
"-.	c #CE310E",
";.	c #9C0301",
">.	c #430000",
",.	c #100000",
"'.	c #0C2A05",
").	c #0A1D05",
"!.	c #0B2505",
"~.	c #0C2705",
"{.	c #0D2F05",
"].	c #144C05",
"^.	c #0C2605",
"/.	c #0A2005",
"(.	c #0F3705",
"_.	c #071005",
":.	c #091A05",
"<.	c #081805",
"[.	c #071205",
"}.	c #060E05",
"|.	c #165505",
"1.	c #0D2B05",
"2.	c #091805",
"3.	c #0F3505",
"4.	c #134805",
"5.	c #134A05",
"6.	c #0E2F05",
"7.	c #CE320E",
"8.	c #9D0301",
"9.	c #440000",
"0.	c #0A1F05",
"a.	c #1B6D05",
"b.	c #134605",
"c.	c #070F05",
"d.	c #0C2905",
"e.	c #CD300E",
"f.	c #9B0301",
"g.	c #420000",
"h.	c #155105",
"i.	c #CC2E0D",
"j.	c #990201",
"k.	c #410000",
"l.	c #230000",
"m.	c #081405",
"n.	c #CB2D0C",
"o.	c #960201",
"p.	c #400000",
"q.	c #110000",
"r.	c #124405",
"s.	c #185D05",
"t.	c #615B23",
"u.	c #62420E",
"v.	c #231106",
"w.	c #463F05",
"x.	c #523906",
"y.	c #522206",
"z.	c #501105",
"A.	c #3B0100",
"B.	c #190000",
"C.	c #0E0000",
"D.	c #070000",
"E.	c #C6BA47",
"F.	c #C6861D",
"G.	c #46230D",
"H.	c #8E7F0B",
"I.	c #A6740D",
"J.	c #A6460D",
"K.	c #A52A0C",
"L.	c #7F0201",
"M.	c #4E0000",
"N.	c #390000",
"O.	c #0C0000",
"P.	c #1B6B05",
"Q.	c #196505",
"R.	c #CE330E",
"S.	c #610000",
"T.	c #460000",
"U.	c #175C05",
"V.	c #091C05",
"W.	c #5F0000",
"X.	c #155305",
"Y.	c #CD2F0D",
"Z.	c #9A0201",
"`.	c #5E0000",
" +	c #113E05",
".+	c #0F3405",
"++	c #980201",
"@+	c #5C0000",
"#+	c #0F3805",
"$+	c #0B2305",
"%+	c #0B2405",
"&+	c #0B2205",
"*+	c #0A2105",
"=+	c #0C2805",
"-+	c #CB2C0D",
";+	c #5B0000",
">+	c #165605",
",+	c #165705",
"'+	c #5D0000",
")+	c #081505",
"!+	c #144D05",
"~+	c #CB2C0C",
"{+	c #124205",
"]+	c #CC2F0D",
"^+	c #091D05",
"/+	c #165805",
"(+	c #CC2D0C",
"_+	c #970201",
":+	c #1B6E05",
"<+	c #1C7305",
"[+	c #175D05",
"}+	c #1A6605",
"|+	c #CC2D0D",
"1+	c #CB2D0D",
"2+	c #CD2F0E",
"3+	c #9A0301",
"4+	c #0F3605",
"5+	c #0E3005",
"6+	c #0D2E05",
"7+	c #CD300D",
"8+	c #113D05",
"9+	c #CD310E",
"0+	c #7E7E4F",
"a+	c #98963E",
"b+	c #AEAD38",
"c+	c #BDBB3B",
"d+	c #C3C243",
"e+	c #C4C350",
"f+	c #BCBA64",
"g+	c #B1B183",
"h+	c #600000",
"i+	c #67693D",
"j+	c #908E24",
"k+	c #A6A826",
"l+	c #B9B733",
"m+	c #C4C340",
"n+	c #CECC4A",
"o+	c #D6D454",
"p+	c #D9D75B",
"q+	c #D9DB5F",
"r+	c #DAD85C",
"s+	c #D1CF61",
"t+	c #B7B689",
"u+	c #1D7804",
"v+	c #1D7704",
"w+	c #620000",
"x+	c #470000",
"y+	c #626327",
"z+	c #8E8D18",
"A+	c #A2A424",
"B+	c #B5B331",
"C+	c #C4C240",
"D+	c #D1CF4F",
"E+	c #DADB5F",
"F+	c #E3E16B",
"G+	c #E7E573",
"H+	c #E7E677",
"I+	c #E7E675",
"J+	c #E4E26C",
"K+	c #DEDC62",
"L+	c #BFBD77",
"M+	c #1D7604",
"N+	c #1C7204",
"O+	c #1A6C04",
"P+	c #186604",
"Q+	c #55541E",
"R+	c #807F12",
"S+	c #97991D",
"T+	c #AFAD2B",
"U+	c #C1BF3B",
"V+	c #CFCE4D",
"W+	c #DCDA5E",
"X+	c #E6E572",
"Y+	c #EBEC82",
"Z+	c #F0EF8E",
"`+	c #F1F294",
" @	c #F0EF90",
".@	c #EEEC86",
"+@	c #DCDE64",
"@@	c #BCBB74",
"#@	c #196504",
"$@	c #0E3A02",
"%@	c #124D02",
"&@	c #0D3902",
"*@	c #0C3102",
"=@	c #082501",
"-@	c #071E01",
";@	c #0D3302",
">@	c #1A6904",
",@	c #3F4022",
"'@	c #6F6E0B",
")@	c #888716",
"!@	c #A2A022",
"~@	c #B7B531",
"{@	c #C8C644",
"]@	c #D8D758",
"^@	c #E1E36D",
"/@	c #EDEB83",
"(@	c #F4F398",
"_@	c #F7F6A7",
":@	c #F6F7A9",
"<@	c #F4F59F",
"[@	c #EEED8A",
"}@	c #E6E472",
"|@	c #DBD95D",
"1@	c #ACAB7D",
"2@	c #155803",
"3@	c #0E3C03",
"4@	c #186203",
"5@	c #186204",
"6@	c #145103",
"7@	c #0A2D01",
"8@	c #061A02",
"9@	c #124A03",
"0@	c #1C7304",
"a@	c #1C7404",
"b@	c #165A04",
"c@	c #4D4E0A",
"d@	c #72730D",
"e@	c #8D8E18",
"f@	c #A7A525",
"g@	c #BABB37",
"h@	c #CDCB49",
"i@	c #DCDB60",
"j@	c #E9E777",
"k@	c #F2F092",
"l@	c #E9EB7F",
"m@	c #E0DE64",
"n@	c #CAC858",
"o@	c #134D03",
"p@	c #124903",
"q@	c #1A6B04",
"r@	c #0D3502",
"s@	c #061702",
"t@	c #124C03",
"u@	c #196704",
"v@	c #2C2B15",
"w@	c #585506",
"x@	c #75760E",
"y@	c #8F9119",
"z@	c #A7A927",
"A@	c #BEBC38",
"B@	c #D0CE4C",
"C@	c #DFDD63",
"D@	c #EAE97E",
"E@	c #F4F39A",
"F@	c #F6F5A2",
"G@	c #E2E06A",
"H@	c #D4D252",
"I@	c #9F9E6E",
"J@	c #104202",
"K@	c #1D7504",
"L@	c #1B6D04",
"M@	c #092702",
"N@	c #0B2E02",
"O@	c #186504",
"P@	c #186404",
"Q@	c #1B6E04",
"R@	c #196904",
"S@	c #186304",
"T@	c #1B7004",
"U@	c #1A6A04",
"V@	c #196804",
"W@	c #175F03",
"X@	c #145303",
"Y@	c #145403",
"Z@	c #186303",
"`@	c #145203",
" #	c #978E36",
".#	c #976616",
"+#	c #361B0A",
"@#	c #6C6108",
"##	c #7E580A",
"$#	c #7E350A",
"%#	c #7B1B08",
"&#	c #5B0100",
"*#	c #370000",
"=#	c #290000",
"-#	c #0A0000",
";#	c #2A2B09",
">#	c #555606",
",#	c #8F9018",
"'#	c #A9A727",
")#	c #BCBE38",
"!#	c #CCCE4C",
"~#	c #EAE97C",
"{#	c #F6F5A0",
"]#	c #E2E068",
"^#	c #D1D353",
"/#	c #ADAC53",
"(#	c #0E3A03",
"_#	c #114702",
":#	c #0A2C01",
"<#	c #0C3402",
"[#	c #0D3602",
"}#	c #155603",
"|#	c #114903",
"1#	c #124B02",
"2#	c #104302",
"3#	c #0A2B01",
"4#	c #051601",
"5#	c #061A01",
"6#	c #1B6F04",
"7#	c #092601",
"8#	c #0A2C02",
"9#	c #918834",
"0#	c #916115",
"a#	c #331A09",
"b#	c #685D08",
"c#	c #795509",
"d#	c #793309",
"e#	c #761907",
"f#	c #570100",
"g#	c #250000",
"h#	c #140000",
"i#	c #2B2C04",
"j#	c #555405",
"k#	c #716E0D",
"l#	c #8D8B17",
"m#	c #A3A525",
"n#	c #BAB934",
"o#	c #CBCC48",
"p#	c #E8E676",
"q#	c #F3F195",
"r#	c #EBE97B",
"s#	c #DFDD65",
"t#	c #D0CE4E",
"u#	c #B8B741",
"v#	c #0F4103",
"w#	c #114902",
"x#	c #114503",
"y#	c #135203",
"z#	c #061D01",
"A#	c #165903",
"B#	c #0F4102",
"C#	c #114B03",
"D#	c #145503",
"E#	c #196604",
"F#	c #104502",
"G#	c #124D03",
"H#	c #2A2A00",
"I#	c #4D4E04",
"J#	c #6C6D0B",
"K#	c #878615",
"L#	c #9F9D21",
"M#	c #B7B52F",
"N#	c #C5C642",
"O#	c #ECEA7E",
"P#	c #F0F294",
"Q#	c #F5F6A4",
"R#	c #F2F399",
"S#	c #EEEC84",
"T#	c #E5E36F",
"U#	c #C9CA48",
"V#	c #B8B636",
"W#	c #0E3C02",
"X#	c #061802",
"Y#	c #155A03",
"Z#	c #0E3902",
"`#	c #155403",
" $	c #176104",
".$	c #051801",
"+$	c #0C3302",
"@$	c #0C3502",
"#$	c #186704",
"$$	c #165F03",
"%$	c #051901",
"&$	c #202000",
"*$	c #454303",
"=$	c #626309",
"-$	c #7F7D11",
";$	c #98961C",
">$	c #ADAB29",
",$	c #BDBC39",
"'$	c #CECC48",
")$	c #ECEE88",
"!$	c #F0EF8C",
"~$	c #EFEE89",
"{$	c #E4E571",
"]$	c #D1CF4D",
"^$	c #C3C23D",
"/$	c #AFAD2F",
"($	c #0B2E01",
"_$	c #051701",
":$	c #114803",
"<$	c #071B01",
"[$	c #0B3002",
"}$	c #081F01",
"|$	c #0F3D02",
"1$	c #145603",
"2$	c #111101",
"3$	c #373802",
"4$	c #575806",
"5$	c #898B17",
"6$	c #9EA022",
"7$	c #B3B12F",
"8$	c #C2C13E",
"9$	c #D6D85A",
"0$	c #E4E36E",
"a$	c #E6E470",
"b$	c #E1DF67",
"c$	c #C5C441",
"d$	c #9A9C2C",
"e$	c #082301",
"f$	c #092401",
"g$	c #0B2F02",
"h$	c #165C03",
"i$	c #176004",
"j$	c #114602",
"k$	c #0A2701",
"l$	c #124803",
"m$	c #0D3802",
"n$	c #050501",
"o$	c #2A2800",
"p$	c #474804",
"q$	c #656409",
"r$	c #7D7C11",
"s$	c #92901A",
"t$	c #A6A424",
"u$	c #B5B32F",
"v$	c #D2D150",
"w$	c #D6D456",
"x$	c #D7D659",
"y$	c #D7D657",
"z$	c #D4D250",
"A$	c #C3C23F",
"B$	c #B8B632",
"C$	c #807E2E",
"D$	c #0E3B02",
"E$	c #104102",
"F$	c #165D03",
"G$	c #165B03",
"H$	c #155503",
"I$	c #175E03",
"J$	c #0F4202",
"K$	c #1C7104",
"L$	c #020202",
"M$	c #161800",
"N$	c #373501",
"O$	c #525305",
"P$	c #6A6B0B",
"Q$	c #828112",
"R$	c #92941A",
"S$	c #A4A224",
"T$	c #B0AE2C",
"U$	c #BCBA34",
"V$	c #BFC13B",
"W$	c #C7C543",
"X$	c #C4C543",
"Y$	c #BBB937",
"Z$	c #A8A626",
"`$	c #96981C",
" %	c #5F5F35",
".%	c #082001",
"+%	c #020000",
"@%	c #222200",
"#%	c #3E3C02",
"$%	c #818011",
"%%	c #908F18",
"&%	c #9D9B1F",
"*%	c #A5A725",
"=%	c #AEAC2A",
"-%	c #B1AF2F",
";%	c #B1B32F",
">%	c #90921A",
",%	c #797819",
"'%	c #114A02",
")%	c #135103",
"!%	c #010101",
"~%	c #0A0A00",
"{%	c #262600",
"]%	c #3F4002",
"^%	c #67680A",
"/%	c #79780F",
"(%	c #868414",
"_%	c #9A9B1F",
":%	c #9C9E20",
"<%	c #908F1A",
"[%	c #878915",
"}%	c #7C7B10",
"|%	c #494A27",
"1%	c #134F03",
"2%	c #0F3F02",
"3%	c #155903",
"4%	c #000000",
"5%	c #0C0C00",
"6%	c #393A02",
"7%	c #4E4F05",
"8%	c #5E5D08",
"9%	c #6B6A0B",
"0%	c #7C7D11",
"a%	c #818212",
"b%	c #828414",
"c%	c #848212",
"d%	c #7D7F11",
"e%	c #77790F",
"f%	c #6E6D0C",
"g%	c #464618",
"h%	c #1A6D04",
"i%	c #060800",
"j%	c #1E1C00",
"k%	c #2F3101",
"l%	c #414003",
"m%	c #595807",
"n%	c #5F6008",
"o%	c #646509",
"p%	c #65660A",
"q%	c #616208",
"r%	c #5A5B07",
"s%	c #383812",
"t%	c #CF350F",
"u%	c #A20702",
"v%	c #490301",
"w%	c #290200",
"x%	c #110100",
"y%	c #101000",
"z%	c #2D2F01",
"A%	c #404103",
"B%	c #444503",
"C%	c #464703",
"D%	c #474503",
"E%	c #393A06",
"F%	c #222110",
"G%	c #D05A10",
"H%	c #D05310",
"I%	c #86350A",
"J%	c #772F09",
"K%	c #3A1203",
"L%	c #070701",
"M%	c #141200",
"N%	c #1C1C00",
"O%	c #1A1A02",
"P%	c #141404",
"Q%	c #0F1007",
"R%	c #D09A10",
"S%	c #D07E10",
"T%	c #86510A",
"U%	c #774809",
"V%	c #3A1B03",
"W%	c #B2A10E",
"X%	c #D0B310",
"Y%	c #86730A",
"Z%	c #776609",
"`%	c #3B2603",
" &	c #221F03",
".&	c #272403",
"+&	c #241702",
"@&	c #331402",
"#&	c #1D0801",
". . . . . . . . . . . . . . . . . . . . . . . . . . . . . . . . . . . . . . . . . . . . . . . . . . . . . + @ # $ $ $ $ $ % & * ",
". . . . . . . . . . . . . . . . . . . . . . . . . . . . . . . . . . . . . . . . . . . . . . . . . . . . . = - ; > , , , , ' ) ! ",
". . . . . . . . . . . . . . . . . . . . . . . . . . . . . . . . . . . . . . . . . . . . . . . . . . . . . = - ; ~ { { { { ] ^ / ",
". . . . . . . . . . . . . . . . . . . . . . . . . . . . . . . . . . . . . . . . . . . . . . . . . . . . . = - ; ~ ( _ _ _ : < [ ",
". . . . . . . . . . . . . . . . . . . . . . . . . . . . . . . . . . . . . . . . . . . . . . . . . . . . . = - ; ~ } | 1 2 3 4 5 ",
". . . . . 6 7 8 . . . . . . . . 6 9 0 a a a a a 0 b 6 . . . . . . . . . . . c d a e 8 8 8 8 8 f 0 g . . . = - ; ~ } | h i j k l ",
". . . . . m n o m p . . b f q r s t u v v v v w u t x y z A B p . . g a C D E F v o G G G G H I J K L M 8 = - ; ~ } | h i j k l ",
". . . . . N O P Q R 6 S T U V W W W W W W W W W W W W W X Y f 6 c A x H Z W W W W W W W W W W W W W W `  .= - ; ~ } | ..+.j k l ",
". . . . . v W @.#.$.%.&.*.*.W W W W W W W W W W W W W W W @.f B =.&.*.*.W W W W W W W W W W W W W W W W W = - ; ~ } | -.;.>.k ,.",
". . . . A '.W ).g 0 !.W W W W ` ` W W W W W W W W W W W W ~.$.. {.W W W W W W W W W W W W W W W W W W W W = - ; ~ } | -.;.>.k ,.",
". . . . ].O W ~.. M ^./.v Q x s s E t (.^._.W W W W W W :.s . . {.W _.@.Z Z :.<.[.W W W W W W W W W W W W = - ; ~ } | h i j k l ",
". . . . H ` }.H . e ].|.d . . . . . . 0 y J 1.2.W W W ` 3.g . . E (.J 4.5.5.5.K F I 6.!.Z }.W W W W W W W = - ; ~ } | 7.8.9.k ,.",
". . . R 0.W &.w . . . . . . . . . . . . . . a.b.0.c.W d.r . . . . . . . . . . . . . 6 8 4.U @.` W W W W W = - ; ~ } | e.f.g.k ,.",
". . c M Z W @.F . . . . . . . . . . . . . . . . 0 H  .h.. . . . . . . . . . . . . . . . . 6 z :.W W W W W = - ; ~ } | i.j.k.l.,.",
". . B b.m.W @.F . . . . . . . . . . . . . . . . p 9 a b . . . . . . . . . . . . . . . . . . 9 @.W W W W W = - ; ~ } | n.o.p.l.q.",
". . g G _.W <.r.. . . . . . . . . . . . . . . . . . . . . . . . . . . . . . . . . . . . . c s.[.W W W W W t.u.v.w.x.y.z.A.B.C.D.",
". . b ).W W <.r.. . . . . . . . . . . . . . . . . . . . . . . . . . . . . . . . . . . . . d v }.W W W W W E.F.G.H.I.J.K.L.M.N.O.",
". . P._.W W @.F . . g 7 e #.y y y r z Q.a.$.. . . . . . . . . . . . . . . . . . . . . . . C 2.W W W W W W = - ; ~ } | R.+.S.T.l ",
". c U.` W W @.r.. a.s H O ` W W W W }./.u 7 . . . . . . . . . . . . . . . . . . . . . . d t W W W W W W V.= - ; ~ } | -.;.W.T.,.",
". b ].` W W @.n p H [.W W W W W W W W *.0.z . . . . . . . . . . . . . . . . . . . . . . y O W W W W W X X.= - ; ~ } | Y.Z.`.j ,.",
". a.J *.W W m. +p ).W W W W W W W W W W K 9 . . . . . . . . . . . . . . . . . . . . . P.I W W W W W _..+g = - ; ~ } | i.++@+j ,.",
". a o *.W W X #+p G $+%+&+2.W W W W *.*+a . . . . . . . . . . . . . . . . . . . . . . Q @.W W W W W =+e . = - ; ~ } | -+o.;+9.q.",
". Q.~.W W W c.o . r >+,+X.4.(.!.X W &.T $.. . . . . . . . . . . . . . . . . . . . . #.%+W W W W W *+N . . = - ; ~ } | i.j.'+j ,.",
". C  .W W W *.1.. . . . . . . 8 G P %+g . . . . . . . . . . . . . . . . . . . . . b Y }.W W W W )+!+. . . = - ; ~ } | ~+o.;+9.q.",
". #.)+W W W W &+. . . . . . . . A T K . . . . . . . . . . . . . . . . . . . . . g {+[.W W W W }.E R . . . = - ; ~ } | ]+j.'+j ,.",
". s.c.W W W W ^+$.. . . . . . . 6 g b . . . . . . . . . . . . . . . . . . . . $.,+&.W W W W c.s b . . . . = - ; ~ } | ]+j.'+j ,.",
". r W W W W W :.0 p . . . . . . . . . . . . . . . . . . . . . . . . . . . . 6 /+/.W W W W V.s g . . . . . = - ; ~ } | (+_+@+9.,.",
". D W W W W W <.M c . . . . . . . . . . . . . . . . . . . . . . . . . . . . $.Q W W W c.'.h.p . . . . . . = - ; ~ } | i.++@+j ,.",
". D W W W W W )+s $.. . . . . . . . . . . . . . . . . . . . . . . . . . :+:+g /+*+_.@..+#.. . . . . . . . = - ; ~ } | Y.Z.`.j ,.",
". D W W W W W &.{+<+. . . . . . . . . . . . . . . . . . . . . . . . . b u I [+. }+H >+<+. . . . . . . . . = - ; ~ } | |+++@+9.,.",
". D W W W W W _.o b . . . . . . . . . . . . . . . . . . . . . . . . m H _.W V.b.B c 6 . . . . . . . . . . = - ; ~ } | 1+_+@+j q.",
". D W W W W W *.*+9 . . . . . . . . . . . . . . . . . . . . . . . y d._.W W W )+Y N B . . . . . . . . . . = - ; ~ } | 2+3+`.j ,.",
". D W W W W W W &.0 . . . . . . . . . . . . . . . . . . . . . a 4.$+W W W W W W W 0.4+!+C <+. . . . . . . = - ; ~ } | i.++'+j ,.",
". U.W W W W W W W z p . . . . . . . . . . . . . . . . . c 0 U.v m.W W W W W W W W W W @.5+b./+#.e f a A Q.= - ; ~ } | ~+o.;+9.q.",
". M X W W W W W *.!+b . . . . . . . . . . . . . . . . . 0 t @.W W W W W W W W W W W W W W W W  .'..+(.H 1.= - ; ~ } | e.f.`.j ,.",
". z Z W W W W W W I 7 . . . . . . . . . . . . . . . . . e 5+W W W W W W W W W W W W W W W W W W W W W W W = - ; ~ } | i.++'+j ,.",
". e $+W W W W W W *+C . . . . . . . . . . . . . . . . . c P.|.1.` W W W W W W W W W W W W W W W W W W W W = - ; ~ } | ~+o.;+9.q.",
". A 6+*.W W W W <.=.m . . . . . . . . . . . . . . . . . . . $.e x 4+).W W W W W W W W W W W W W W W @.=+%.= - ; ~ } | 7+3+W.T.,.",
". 0 v W W c.*+.+].S $.. . . . . . . . . . . . . . . . . . . . . . f h.J o '.&+).Z Z Z Z :. .%+'.H 8+T r a.= - ; ~ } | e.f.`.j ,.",
". 9 T V :..+>+R . . . . . . . . . . . . . . . . . . . . . . . . . . . . $.Q./+!+Q Q Q b.K s D }+c . . . . = - ; ~ } | i.j.'+j ,.",
". $.q n f . . . . . . . . . . . . . . . . . . . . . . . . . . . . . . . . . . . . . . . . . . . . . . . . = - ; ~ } | 9+;.W.T.,.",
". p 6 $.p . . . . . . . . . . . . . . . . . . . . . . . . . . . . . . . . . . . . . . . . . . . . . . . . = - ; ~ } | ..i S.T.l ",
". . . . . . . . . 0+a+b+c+d+e+f+g+. . . . . . . . . . . . . . . . . . . . . . . . . . . . . . . . . . . . = - ; ~ } | 7.8.h+T.,.",
". . . . . . . i+j+k+l+m+n+o+p+q+r+s+t+. . . . . . . . u+v+u+. . . . . . . . . . . . . . . . . . . . . . . = - ; ~ } | h i w+x+l ",
". . . . . . y+z+A+B+C+D+E+F+G+H+I+J+K+L+. . . M+N+. u+O+P+O+u+. . . . . . . . . . . . . . . . . . . . . . = - ; ~ } | 7.8.h+T.l ",
". . . . . Q+R+S+T+U+V+W+X+Y+Z+`+ @.@I++@@@. . #@$@%@&@*@=@-@;@>@v+. . . . . . . . . . . . . . . . . . . . = - ; ~ } | 9+f.W.T.,.",
". . . . ,@'@)@!@~@{@]@^@/@(@_@:@_@<@[@}@|@1@. 2@3@4@5@5@6@7@8@9@0@. . . . . . . . . . . . . . . . . a@b@. = - ; ~ } | Y.j.'+j ,.",
". . . . c@d@e@f@g@h@i@j@k@_@_@_@_@_@(@l@m@n@. o@p@v+. . q@r@s@t@u+. . . . . . . . . . v+u+. . . u+M+u@$@. = - ; ~ } | (+_+@+9.,.",
". . . v@w@x@y@z@A@B@C@D@E@:@_@:@_@_@F@/@G@H@I@J@o@. K@L@9@M@N@O@P@Q@R@S@T@. q@U@V@W@X@Y@a@. . N+Z@`@o@J@.  #.#+#@###$#%#&#*#=#-#",
". . . ;#>#x@,#'#)#!#+@~#(@_@:@_@_@:@{#/@]#^#/#(#9@q@4@_#:#<#W@O@[#}#|#7@%@M+6@1#2#3#4#5#q@v+6#O@1#7#8#P@. 9#0#a#b#c#d#e#f#g#h#-#",
". . . i#j#k#l#m#n#o#q+p# @_@_@:@_@_@q#r#s#t#u#<#v#w#x#y#V@. 6#3#(#O+U@[#z#V@A#B#C#D#[#s@E#t@F#O@u+W@8@G#. = - ; ~ } | (+_+p.l.,.",
". . . H#I#J#K#L#M#N#o+G@O#P#Q#_@_@R#S#T#p+U#V#:#W#N+0@a@u+. O@X#p@N+M+9@8@Y#D#Z#`#.  $.$P++$@$#$N+$$%$`@. = - ; ~ } | Y.j.k.l.,.",
". . . &$*$=$-$;$>$,$'$r+J+r#)$!$~$O#{$i@]$^$/$=@($. . . . . P@_$_#N+v+:$<$V@t@[$`#. L@}$O+|$@$1$X@($W#u@. = - ; ~ } | e.f.>.k ,.",
". . . 2$3$4$d@5$6$7$8$!#9$s#0$a$T#b$|@D+c$~@d$e$f$a@. . . . L@g$3#h$i$2#j$M+(#7#`@. L@k$6#E#l$m$W#o@>@v+. = - ; ~ } | 7.8.9.k l ",
". . . n$o$p$q$r$s$t$u$U+U#v$w$x$y$z$h@A$B$z@C$D$E$a@. . . . M+F$[#2@G$H$0@. :$W#I$. 6#J$K$. S@@$3#W@K$u+. = - ; ~ } | h i j k l ",
". . . L$M$N$O$P$Q$R$S$T$U$V$c$W$X$8$Y$7$Z$`$ %q@. . . . . . . . . u+. . . . . N+0@. M+6#v+. K@Y#3#.%2#O+. = - ; ~ } | 9+;.>.k ,.",
". . . . +%@%#%w@J#$%%%&%*%=%-%7$;%T$'#L#>%,%. . . . . . . . . . . . . . . . . . . . . . . T@O@U@0@'%.$)%. = - ; ~ } | 7.8.9.k ,.",
". . . . !%~%{%]%>#^%/%(%%%;$_%:%&%`$<%[%}%|%. . . . . . . . . . . . . . . . . . . . . . . 1%:#2%v+a@[#3%. = - ; ~ } | h i j k l ",
". . . . . 4%5%{%6%7%8%9%x@0%a%b%c%d%e%f%g%. . . . . . . . . . . . . . . . . . . . . . . . R@G#B#`@6#F$h%. = - ; ~ } | ..i j k l ",
". . . . . . 4%i%j%k%l%I#m%n%o%p%p%q%r%s%. . . . . . . . . . . . . . . . . . . . . . . . . . . . . . . . . = - ; ~ } | t%u%v%w%x%",
". . . . . . . !%4%y%&$z%3$A%B%C%D%E%F%. . . . . . . . . . . . . . . . . . . . . . . . . . . . . . . . . . = - ; ~ } G%H%H%I%J%K%",
". . . . . . . . . !%4%L%M%N%O%P%Q%. . . . . . . . . . . . . . . . . . . . . . . . . . . . . . . . . . . . = - ; ~ R%S%S%S%T%U%V%",
". . . . . . . . . . . . . . . . . . . . . . . . . . . . . . . . . . . . . . . . . . . . . . . . . . . . . = - ; W%X%X%X%X%Y%Z%`%",
". . . . . . . . . . . . . . . . . . . . . . . . . . . . . . . . . . . . . . . . . . . . . . . . . . . . . = - ;  &.&.&.&.&+&@&#&"};
